<?xml version="1.0" encoding="utf-8"?>
<!-- Generator: Adobe Illustrator 18.0.0, SVG Export Plug-In . SVG Version: 6.00 Build 0)  -->
<!DOCTYPE svg PUBLIC "-//W3C//DTD SVG 1.1//EN" "http://www.w3.org/Graphics/SVG/1.1/DTD/svg11.dtd">
<svg version="1.1" xmlns="http://www.w3.org/2000/svg" xmlns:xlink="http://www.w3.org/1999/xlink" x="0px" y="0px"
	 viewBox="0 0 120.9 77.8" enable-background="new 0 0 120.9 77.8" xml:space="preserve">
<g id="Rectangle_3_1_" enable-background="new    ">
	<g id="Rectangle_3">
		<g>
			<polygon fill="#C6C6CD" points="68.8,73.9 52,73.9 52,76.6 68.8,76.6 68.8,73.9 			"/>
		</g>
	</g>
</g>
<g id="Rectangle_4_1_" enable-background="new    ">
	<g id="Rectangle_4">
		<g>
			<rect x="43.8" y="75.6" fill-rule="evenodd" clip-rule="evenodd" fill="#C6C6CD" width="33.2" height="1.7"/>
		</g>
		<g>
			<path fill="#A6A6AA" d="M76.6,76v0.9H44.2V76H76.6 M77.4,75.2H43.3v2.6h34.1V75.2L77.4,75.2z"/>
		</g>
	</g>
</g>
<g id="Rounded_Rectangle_2_1_" enable-background="new    ">
	<g id="Rounded_Rectangle_2">
		<g>
			<path fill-rule="evenodd" clip-rule="evenodd" fill="#C6C6CD" d="M2.4,73.5c-0.9,0-1.7-1.1-1.7-2.4v-4c0-1.3,0.8-2.4,1.7-2.4
				h116.1c0.9,0,1.7,1.1,1.7,2.4v4c0,1.3-0.8,2.4-1.7,2.4H2.4z"/>
		</g>
		<g>
			<path fill="#A6A6AA" d="M118.5,65.4c0.5,0,1.1,0.7,1.1,1.7v4c0,1-0.6,1.7-1.1,1.7H2.4c-0.5,0-1.1-0.7-1.1-1.7v-4
				c0-1,0.6-1.7,1.1-1.7H118.5 M118.5,64.1H2.4c-1.3,0-2.4,1.4-2.4,3.1v4c0,1.7,1.1,3.1,2.4,3.1h116.1c1.3,0,2.4-1.4,2.4-3.1v-4
				C120.9,65.4,119.9,64.1,118.5,64.1L118.5,64.1z"/>
		</g>
	</g>
</g>
<g id="Rectangle_1_copy_1_" enable-background="new    ">
	<g id="Rectangle_1_copy">
		<g>
			<rect x="3.7" y="3.8" fill-rule="evenodd" clip-rule="evenodd" fill="#C6C6CD" width="113.4" height="61.1"/>
		</g>
		<g>
			<path fill="#A6A6AA" d="M115.8,5.1v58.5H5V5.1H115.8 M118.4,2.5H2.4v63.7h115.9V2.5L118.4,2.5z"/>
		</g>
	</g>
</g>
<g id="Rounded_Rectangle_1_1_" enable-background="new    ">
	<g id="Rounded_Rectangle_1">
		<g>
			<path fill-rule="evenodd" clip-rule="evenodd" fill="#C6C6CD" d="M2.4,68c-1,0-1.7-0.8-1.7-1.7V2.4c0-1,0.8-1.7,1.7-1.7h116
				c1,0,1.7,0.8,1.7,1.7v63.8c0,1-0.8,1.7-1.7,1.7H2.4z"/>
		</g>
		<g>
			<path fill="#A6A6AA" d="M118.4,1.4c0.6,0,1.1,0.5,1.1,1.1v63.8c0,0.6-0.5,1.1-1.1,1.1H2.4c-0.6,0-1.1-0.5-1.1-1.1V2.4
				c0-0.6,0.5-1.1,1.1-1.1H118.4 M118.4,0H2.4C1.1,0,0,1.1,0,2.4v63.8c0,1.3,1.1,2.4,2.4,2.4h116c1.3,0,2.4-1.1,2.4-2.4V2.4
				C120.9,1.1,119.8,0,118.4,0L118.4,0z"/>
		</g>
	</g>
</g>
<g id="Rounded_Rectangle_3_1_" enable-background="new    ">
	<g id="Rounded_Rectangle_3">
		<g>
			<path fill-rule="evenodd" clip-rule="evenodd" fill="#C6C6CD" d="M7.7,62.8c-1,0-1.7-0.8-1.7-1.7V6.8c0-1,0.8-1.7,1.7-1.7h105.5
				c1,0,1.7,0.8,1.7,1.7v54.3c0,1-0.8,1.7-1.7,1.7H7.7z"/>
		</g>
		<g>
			<path fill="#A6A6AA" d="M113.1,5.7c0.6,0,1.1,0.5,1.1,1.1v54.3c0,0.6-0.5,1.1-1.1,1.1H7.7c-0.6,0-1.1-0.5-1.1-1.1V6.8
				c0-0.6,0.5-1.1,1.1-1.1H113.1 M113.1,4.4H7.7c-1.3,0-2.4,1.1-2.4,2.4v54.3c0,1.3,1.1,2.4,2.4,2.4h105.5c1.3,0,2.4-1.1,2.4-2.4
				V6.8C115.5,5.4,114.5,4.4,113.1,4.4L113.1,4.4z"/>
		</g>
	</g>
</g>
<g id="Rounded_Rectangle_3_copy_1_" display="none" enable-background="new    ">
	<g id="Rounded_Rectangle_3_copy" display="inline">
		<g>
			<path fill-rule="evenodd" clip-rule="evenodd" fill="#D7D7D7" d="M7.7,62.8c-1,0-1.7-0.8-1.7-1.7V6.8c0-1,0.8-1.7,1.7-1.7h105.5
				c1,0,1.7,0.8,1.7,1.7v54.3c0,1-0.8,1.7-1.7,1.7H7.7z"/>
		</g>
		<g>
			<path fill="#A6A6AA" d="M113.1,5.7c0.6,0,1.1,0.5,1.1,1.1v54.3c0,0.6-0.5,1.1-1.1,1.1H7.7c-0.6,0-1.1-0.5-1.1-1.1V6.8
				c0-0.6,0.5-1.1,1.1-1.1H113.1 M113.1,4.4H7.7c-1.3,0-2.4,1.1-2.4,2.4v54.3c0,1.3,1.1,2.4,2.4,2.4h105.5c1.3,0,2.4-1.1,2.4-2.4
				V6.8C115.5,5.4,114.5,4.4,113.1,4.4L113.1,4.4z"/>
		</g>
	</g>
</g>
</svg>
