<?xml version="1.0" encoding="utf-8"?>
<!-- Generator: Adobe Illustrator 18.0.0, SVG Export Plug-In . SVG Version: 6.00 Build 0)  -->
<!DOCTYPE svg PUBLIC "-//W3C//DTD SVG 1.1//EN" "http://www.w3.org/Graphics/SVG/1.1/DTD/svg11.dtd">
<svg version="1.1" xmlns="http://www.w3.org/2000/svg" xmlns:xlink="http://www.w3.org/1999/xlink" x="0px" y="0px"
	 viewBox="0 0 71.2 124.5" enable-background="new 0 0 71.2 124.5" xml:space="preserve">
<g id="Rounded_Rectangle_1_1_" enable-background="new    ">
	<g id="Rounded_Rectangle_1">
		<g>
			<path fill-rule="evenodd" clip-rule="evenodd" fill="#C6C6CD" d="M2,123.5c-0.5,0-1-0.6-1-1.5V2.5C1,1.6,1.5,1,2,1h67.3
				c0.5,0,1,0.6,1,1.5V122c0,0.9-0.5,1.5-1,1.5H2z"/>
		</g>
		<g>
			<path fill="#999A9F" d="M69.1,2c0.1,0.1,0.1,0.3,0.1,0.5V122c0,0.2-0.1,0.4-0.1,0.5h-67C2.1,122.4,2,122.3,2,122V2.5
				C2,2.3,2.1,2.1,2.1,2H69.1 M69.3,0H2C0.9,0,0,1.1,0,2.5V122c0,1.4,0.9,2.5,2,2.5h67.3c1.1,0,2-1.1,2-2.5V2.5
				C71.2,1.1,70.4,0,69.3,0L69.3,0z"/>
		</g>
	</g>
</g>
<g id="Rounded_Rectangle_5_1_" enable-background="new    ">
	<g id="Rounded_Rectangle_5">
		<g>
			<path fill-rule="evenodd" clip-rule="evenodd" fill="#C6C6CD" d="M7.9,113.9c-0.5,0-0.9-0.6-0.9-1.4V9.7C7,9,7.4,8.4,7.9,8.4
				h55.5c0.5,0,0.9,0.6,0.9,1.4v102.8c0,0.7-0.4,1.4-0.9,1.4H7.9z"/>
		</g>
		<g>
			<path fill="#999A9F" d="M63.3,9.2c0.1,0.1,0.2,0.3,0.2,0.6v102.8c0,0.3-0.1,0.5-0.2,0.6H8c-0.1-0.1-0.2-0.3-0.2-0.6V9.7
				c0-0.3,0.1-0.5,0.2-0.6H63.3 M63.4,7.6H7.9c-0.9,0-1.7,1-1.7,2.2v102.8c0,1.2,0.8,2.2,1.7,2.2h55.5c0.9,0,1.7-1,1.7-2.2V9.7
				C65.1,8.5,64.3,7.6,63.4,7.6L63.4,7.6z"/>
		</g>
	</g>
</g>
<g id="Rounded_Rectangle_5_copy_1_" display="none" enable-background="new    ">
	<g id="Rounded_Rectangle_5_copy" display="inline">
		<g>
			<path fill-rule="evenodd" clip-rule="evenodd" fill="#D7D7D7" d="M7.9,113.9c-0.5,0-0.9-0.6-0.9-1.4V9.7C7,9,7.4,8.4,7.9,8.4
				h55.5c0.5,0,0.9,0.6,0.9,1.4v102.8c0,0.7-0.4,1.4-0.9,1.4H7.9z"/>
		</g>
		<g>
			<path fill="#999A9F" d="M63.3,9.2c0.1,0.1,0.2,0.3,0.2,0.6v102.8c0,0.3-0.1,0.5-0.2,0.6H8c-0.1-0.1-0.2-0.3-0.2-0.6V9.7
				c0-0.3,0.1-0.5,0.2-0.6H63.3 M63.4,7.6H7.9c-0.9,0-1.7,1-1.7,2.2v102.8c0,1.2,0.8,2.2,1.7,2.2h55.5c0.9,0,1.7-1,1.7-2.2V9.7
				C65.1,8.5,64.3,7.6,63.4,7.6L63.4,7.6z"/>
		</g>
	</g>
</g>
<g id="Ellipse_1_1_" enable-background="new    ">
	<g id="Ellipse_1">
		<g>
			<path fill="#999A9F" d="M35.6,117.3c0.8,0,1.4,0.7,1.4,1.5c0,0.8-0.6,1.5-1.4,1.5s-1.4-0.7-1.4-1.5
				C34.3,118,34.9,117.3,35.6,117.3 M35.6,116.3c-1.3,0-2.4,1.1-2.4,2.5c0,1.4,1.1,2.5,2.4,2.5s2.4-1.1,2.4-2.5
				C38,117.4,36.9,116.3,35.6,116.3L35.6,116.3z"/>
		</g>
	</g>
</g>
<g id="Rounded_Rectangle_4_1_" enable-background="new    ">
	<g id="Rounded_Rectangle_4">
		<g>
			<path fill="#999A9F" d="M41.1,3.7c0,0,0,0.1,0,0.1s0,0.1,0,0.1H29.6c0,0,0-0.1,0-0.1s0-0.1,0-0.1H41.1 M41.3,2.7H29.5
				c-0.5,0-0.9,0.5-0.9,1.1c0,0.6,0.4,1.1,0.9,1.1h11.8c0.5,0,0.9-0.5,0.9-1.1C42.2,3.2,41.8,2.7,41.3,2.7L41.3,2.7z"/>
		</g>
	</g>
</g>
</svg>
