<?xml version="1.0" encoding="utf-8"?>
<!-- Generator: Adobe Illustrator 18.0.0, SVG Export Plug-In . SVG Version: 6.00 Build 0)  -->
<!DOCTYPE svg PUBLIC "-//W3C//DTD SVG 1.1//EN" "http://www.w3.org/Graphics/SVG/1.1/DTD/svg11.dtd">
<svg version="1.1" xmlns="http://www.w3.org/2000/svg" xmlns:xlink="http://www.w3.org/1999/xlink" x="0px" y="0px"
	 viewBox="0 0 71.2 124.5" enable-background="new 0 0 71.2 124.5" xml:space="preserve">
<g id="Rounded_Rectangle_8_1_" enable-background="new    ">
	<g id="Rounded_Rectangle_8">
		<g>
			<path fill="#C6C6CD" d="M10,123.7c-5.3-0.9-9.2-5.3-9.2-10.3V11.5C0.8,5.7,5.9,1,12.1,1h47.1c6.2,0,11.3,4.7,11.3,10.5v101.9
				c0,5.1-3.9,9.4-9.2,10.3H10z"/>
		</g>
		<g>
			<path fill="#999A9F" d="M59.2,1.8c5.8,0,10.5,4.4,10.5,9.7v101.9c0,4.7-3.6,8.7-8.5,9.5H10.1c-4.9-0.9-8.5-4.9-8.5-9.5V11.5
				c0-5.4,4.7-9.7,10.5-9.7H59.2 M59.2,0.2H12.1C5.4,0.2,0,5.3,0,11.5v101.9c0,5.6,4.3,10.2,9.9,11.1h51.4c5.6-1,9.9-5.6,9.9-11.1
				V11.5C71.2,5.3,65.8,0.2,59.2,0.2L59.2,0.2z"/>
		</g>
	</g>
</g>
<g id="Rounded_Rectangle_4_1_" enable-background="new    ">
	<g id="Rounded_Rectangle_4">
		<g>
			<path fill="#999A9F" d="M48.7,7.4c0.9,0,1.5,0.4,1.5,0.6s-0.6,0.6-1.5,0.6H21.8c-0.9,0-1.5-0.4-1.5-0.6s0.6-0.6,1.5-0.6H48.7
				 M48.7,6.9H21.8c-1.1,0-2,0.5-2,1.1s0.9,1.1,2,1.1h26.9c1.1,0,2-0.5,2-1.1S49.8,6.9,48.7,6.9L48.7,6.9z"/>
		</g>
	</g>
</g>
<g id="Ellipse_2_1_" enable-background="new    ">
	<g id="Ellipse_2">
		<g>
			<path fill-rule="evenodd" clip-rule="evenodd" fill="#C6C6CD" d="M35.6,121.2c-2.4,0-4.3-1.9-4.3-4.3s1.9-4.3,4.3-4.3
				s4.3,1.9,4.3,4.3S38,121.2,35.6,121.2z"/>
		</g>
		<g>
			<path fill="#999A9F" d="M35.6,112.6c2.3,0,4.2,1.9,4.2,4.2s-1.9,4.2-4.2,4.2s-4.2-1.9-4.2-4.2S33.3,112.6,35.6,112.6 M35.6,112.3
				c-2.5,0-4.5,2-4.5,4.5s2,4.5,4.5,4.5c2.5,0,4.5-2,4.5-4.5S38.1,112.3,35.6,112.3L35.6,112.3z"/>
		</g>
	</g>
</g>
<g id="Rectangle_2_1_" enable-background="new    ">
	<g id="Rectangle_2">
		<g>
			<rect x="6.9" y="14.1" fill-rule="evenodd" clip-rule="evenodd" fill="#C6C6CD" width="57.5" height="96.6"/>
		</g>
		<g>
			<path fill="#999A9F" d="M64,14.5v95.9H7.2V14.5H64 M64.7,13.8H6.5v97.3h58.2V13.8L64.7,13.8z"/>
		</g>
	</g>
</g>
</svg>
