<?xml version="1.0" encoding="utf-8"?>
<!-- Generator: Adobe Illustrator 18.0.0, SVG Export Plug-In . SVG Version: 6.00 Build 0)  -->
<!DOCTYPE svg PUBLIC "-//W3C//DTD SVG 1.1//EN" "http://www.w3.org/Graphics/SVG/1.1/DTD/svg11.dtd">
<svg version="1.1" xmlns="http://www.w3.org/2000/svg" xmlns:xlink="http://www.w3.org/1999/xlink" x="0px" y="0px"
	 viewBox="0 0 118.7 163.3" enable-background="new 0 0 118.7 163.3" xml:space="preserve">
<g id="Rounded_Rectangle_1_1_" enable-background="new    ">
	<g id="Rounded_Rectangle_1">
		<g>
			<path fill-rule="evenodd" clip-rule="evenodd" fill="#C6C6CD" d="M3.3,162.5c-1.4,0-2.5-1.1-2.5-2.5V3.3c0-1.4,1.1-2.5,2.5-2.5
				h112.1c1.4,0,2.5,1.1,2.5,2.5V160c0,1.4-1.1,2.5-2.5,2.5H3.3z"/>
		</g>
		<g>
			<path fill="#999A9F" d="M115.4,1.6c0.9,0,1.7,0.8,1.7,1.7V160c0,0.9-0.8,1.7-1.7,1.7H3.3c-0.9,0-1.7-0.8-1.7-1.7V3.3
				c0-0.9,0.8-1.7,1.7-1.7H115.4 M115.4,0H3.3C1.5,0,0,1.5,0,3.3V160c0,1.8,1.5,3.3,3.3,3.3h112.1c1.8,0,3.3-1.5,3.3-3.3V3.3
				C118.7,1.5,117.2,0,115.4,0L115.4,0z"/>
		</g>
	</g>
</g>
<g id="Rounded_Rectangle_5_1_" display="none" enable-background="new    ">
	<g id="Rounded_Rectangle_5" display="inline">
		<g>
			<path fill-rule="evenodd" clip-rule="evenodd" fill="#C6C6CD" d="M13.1,149.5c-1.1,0-2-0.9-2-2V12.8c0-1.1,0.9-2,2-2h92.4
				c1.1,0,2,0.9,2,2v134.7c0,1.1-0.9,2-2,2H13.1z"/>
		</g>
		<g>
			<path fill="#999A9F" d="M105.5,11.5c0.7,0,1.2,0.6,1.2,1.2v134.7c0,0.7-0.6,1.2-1.2,1.2H13.1c-0.7,0-1.2-0.6-1.2-1.2V12.8
				c0-0.7,0.6-1.2,1.2-1.2H105.5 M105.5,9.9H13.1c-1.6,0-2.8,1.3-2.8,2.8v134.7c0,1.6,1.3,2.8,2.8,2.8h92.4c1.6,0,2.8-1.3,2.8-2.8
				V12.8C108.4,11.2,107.1,9.9,105.5,9.9L105.5,9.9z"/>
		</g>
	</g>
</g>
<g id="Rounded_Rectangle_5_copy_1_" enable-background="new    ">
	<g id="Rounded_Rectangle_5_copy">
		<g>
			<path fill-rule="evenodd" clip-rule="evenodd" fill="#D7D7D7" d="M13.1,149.5c-1.1,0-2-0.9-2-2V12.8c0-1.1,0.9-2,2-2h92.4
				c1.1,0,2,0.9,2,2v134.7c0,1.1-0.9,2-2,2H13.1z"/>
		</g>
		<g>
			<path fill="#999A9F" d="M105.5,11.5c0.7,0,1.2,0.6,1.2,1.2v134.7c0,0.7-0.6,1.2-1.2,1.2H13.1c-0.7,0-1.2-0.6-1.2-1.2V12.8
				c0-0.7,0.6-1.2,1.2-1.2H105.5 M105.5,9.9H13.1c-1.6,0-2.8,1.3-2.8,2.8v134.7c0,1.6,1.3,2.8,2.8,2.8h92.4c1.6,0,2.8-1.3,2.8-2.8
				V12.8C108.4,11.2,107.1,9.9,105.5,9.9L105.5,9.9z"/>
		</g>
	</g>
</g>
<g id="Ellipse_1_1_" enable-background="new    ">
	<g id="Ellipse_1">
		<g>
			<path fill="#999A9F" d="M59.3,153.5c1.6,0,2.9,1.3,2.9,2.9s-1.3,2.9-2.9,2.9s-2.9-1.3-2.9-2.9S57.7,153.5,59.3,153.5 M59.3,152.5
				c-2.2,0-3.9,1.8-3.9,3.9s1.8,3.9,3.9,3.9s3.9-1.8,3.9-3.9S61.5,152.5,59.3,152.5L59.3,152.5z"/>
		</g>
	</g>
</g>
<g id="Rounded_Rectangle_4_1_" enable-background="new    ">
	<g id="Rounded_Rectangle_4">
		<g>
			<path fill="#999A9F" d="M68.8,4.5c0.2,0,0.4,0.2,0.4,0.4S69,5.4,68.8,5.4H49.1c-0.2,0-0.4-0.2-0.4-0.4s0.2-0.4,0.4-0.4H68.8
				 M68.8,3.5H49.1c-0.8,0-1.4,0.6-1.4,1.4s0.6,1.4,1.4,1.4h19.7c0.8,0,1.4-0.6,1.4-1.4S69.6,3.5,68.8,3.5L68.8,3.5z"/>
		</g>
	</g>
</g>
</svg>
