<?xml version="1.0" encoding="utf-8"?>
<!-- Generator: Adobe Illustrator 18.0.0, SVG Export Plug-In . SVG Version: 6.00 Build 0)  -->
<!DOCTYPE svg PUBLIC "-//W3C//DTD SVG 1.1//EN" "http://www.w3.org/Graphics/SVG/1.1/DTD/svg11.dtd">
<svg version="1.1" xmlns="http://www.w3.org/2000/svg" xmlns:xlink="http://www.w3.org/1999/xlink" x="0px" y="0px"
	 viewBox="0 0 48.4 82.8" enable-background="new 0 0 48.4 82.8" xml:space="preserve">
<g id="Rounded_Rectangle_1_1_" enable-background="new    ">
	<g id="Rounded_Rectangle_1">
		<g>
			<path fill-rule="evenodd" clip-rule="evenodd" fill="#C6C6CD" d="M14.9,27.8c-1.4,0-2-0.6-2-0.7V1.5c0-0.1,0.7-0.7,2-0.7h18.5
				c1.4,0,2,0.6,2,0.7v25.6c0,0.1-0.7,0.7-2,0.7H14.9z"/>
		</g>
		<g>
			<path fill="#A6A6AA" d="M33.4,1.6c0.6,0,1,0.1,1.2,0.2v24.9C34.5,26.9,34,27,33.4,27H14.9c-0.6,0-1-0.1-1.2-0.2V1.8
				c0.2-0.1,0.6-0.2,1.2-0.2H33.4 M33.4,0H14.9c-1.6,0-2.8,0.7-2.8,1.5v25.6c0,0.8,1.3,1.5,2.8,1.5h18.5c1.6,0,2.8-0.7,2.8-1.5V1.5
				C36.3,0.7,35,0,33.4,0L33.4,0z"/>
		</g>
	</g>
</g>
<g id="Rounded_Rectangle_1_copy_1_" enable-background="new    ">
	<g id="Rounded_Rectangle_1_copy">
		<g>
			<path fill-rule="evenodd" clip-rule="evenodd" fill="#C6C6CD" d="M14.9,82c-1.4,0-2-0.6-2-0.7V55.7c0-0.1,0.7-0.7,2-0.7h18.5
				c1.4,0,2,0.6,2,0.7v25.6c0,0.1-0.7,0.7-2,0.7H14.9z"/>
		</g>
		<g>
			<path fill="#A6A6AA" d="M33.4,55.8c0.6,0,1,0.1,1.2,0.2v24.9c-0.2,0.1-0.6,0.2-1.2,0.2H14.9c-0.6,0-1-0.1-1.2-0.2V56
				c0.2-0.1,0.6-0.2,1.2-0.2H33.4 M33.4,54.2H14.9c-1.6,0-2.8,0.7-2.8,1.5v25.6c0,0.8,1.3,1.5,2.8,1.5h18.5c1.6,0,2.8-0.7,2.8-1.5
				V55.7C36.3,54.9,35,54.2,33.4,54.2L33.4,54.2z"/>
		</g>
	</g>
</g>
<g id="Ellipse_1_1_" enable-background="new    ">
	<g id="Ellipse_1">
		<g>
			<path fill-rule="evenodd" clip-rule="evenodd" fill="#C6C6CD" d="M24.2,64.8c-12.9,0-23.4-10.5-23.4-23.4
				C0.8,28.5,11.3,18,24.2,18c12.9,0,23.4,10.5,23.4,23.4C47.6,54.3,37.1,64.8,24.2,64.8z"/>
		</g>
		<g>
			<path fill="#A6A6AA" d="M24.2,18.8c12.5,0,22.6,10.1,22.6,22.6S36.6,64,24.2,64S1.6,53.8,1.6,41.4S11.7,18.8,24.2,18.8
				 M24.2,17.2C10.8,17.2,0,28,0,41.4s10.8,24.2,24.2,24.2s24.2-10.8,24.2-24.2S37.5,17.2,24.2,17.2L24.2,17.2z"/>
		</g>
	</g>
</g>
<g id="Ellipse_2_1_" enable-background="new    ">
	<g id="Ellipse_2">
		<g>
			<circle fill-rule="evenodd" clip-rule="evenodd" fill="#D7D7D7" cx="24.2" cy="41.4" r="19.6"/>
		</g>
	</g>
</g>
<g id="Ellipse_2_copy_1_" display="none" enable-background="new    ">
	<g id="Ellipse_2_copy" display="inline">
		<g>
			<circle fill-rule="evenodd" clip-rule="evenodd" fill="#C6C6CD" cx="24.2" cy="41.4" r="19.6"/>
		</g>
	</g>
</g>
<g id="Rounded_Rectangle_2_1_" enable-background="new    ">
	<g id="Rounded_Rectangle_2">
		<g>
			<path fill-rule="evenodd" clip-rule="evenodd" fill="#A6A6AA" d="M46.1,52c-0.6-0.4-1.4-0.2-1.8,0.4L42.1,56
				c-0.4,0.6-0.2,1.4,0.4,1.8s1.4,0.2,1.8-0.4l2.2-3.5C46.9,53.2,46.7,52.4,46.1,52z"/>
		</g>
	</g>
</g>
<g id="Rounded_Rectangle_2_copy_1_" enable-background="new    ">
	<g id="Rounded_Rectangle_2_copy">
		<g>
			<path fill-rule="evenodd" clip-rule="evenodd" fill="#A6A6AA" d="M45.1,26.3l-2.7-3.2c-0.5-0.6-1.3-0.6-1.9-0.1
				c-0.6,0.5-0.6,1.3-0.1,1.9l2.7,3.2c0.5,0.6,1.3,0.6,1.9,0.1C45.5,27.7,45.5,26.9,45.1,26.3z"/>
		</g>
	</g>
</g>
</svg>
