<?xml version="1.0" encoding="utf-8"?>
<!-- Generator: Adobe Illustrator 18.0.0, SVG Export Plug-In . SVG Version: 6.00 Build 0)  -->
<!DOCTYPE svg PUBLIC "-//W3C//DTD SVG 1.1//EN" "http://www.w3.org/Graphics/SVG/1.1/DTD/svg11.dtd">
<svg version="1.1" xmlns="http://www.w3.org/2000/svg" xmlns:xlink="http://www.w3.org/1999/xlink" x="0px" y="0px"
	 viewBox="0 0 961 1780" enable-background="new 0 0 961 1780" xml:space="preserve">
<g id="Edit_extra_stuff_1_">
	<g id="Gold_Frame_2_">
		<g id="other_1_">
			<g id="Gold_Frame">
				<g>
					<path fill-rule="evenodd" clip-rule="evenodd" fill="#C6C6CD" d="M177.7,1431.6c-45,0-87.4-17.6-119.4-49.7
						c-32-32-49.7-74.4-49.7-119.4V516.8c0-44.9,17.6-87.3,49.7-119.4c32-32,74.4-49.7,119.4-49.7h587.7c45,0,87.4,17.6,119.4,49.7
						c32,32,49.7,74.4,49.7,119.4v745.7c0,44.9-17.6,87.3-49.7,119.4c-32,32-74.4,49.7-119.4,49.7H177.7z"/>
				</g>
				<g>
					<path fill="#A6A6AA" d="M765.4,355.8c21.6,0,42.7,4.3,62.5,12.7c19.2,8.1,36.4,19.8,51.3,34.6c14.8,14.8,26.5,32.1,34.6,51.2
						c8.4,19.8,12.7,40.8,12.7,62.5v745.7c0,21.6-4.3,42.6-12.7,62.5c-8.1,19.2-19.8,36.4-34.6,51.2c-14.8,14.8-32.1,26.5-51.3,34.6
						c-19.8,8.4-40.9,12.7-62.5,12.7H177.7c-21.6,0-42.7-4.3-62.5-12.7c-19.2-8.1-36.4-19.8-51.3-34.6
						c-14.8-14.8-26.5-32.1-34.6-51.2c-8.4-19.8-12.7-40.8-12.7-62.5V516.8c0-21.6,4.3-42.6,12.7-62.5c8.1-19.2,19.8-36.4,34.6-51.2
						c14.8-14.8,32.1-26.5,51.3-34.6c19.8-8.4,40.9-12.7,62.5-12.7H765.4 M765.4,339.8H177.7c-97.4,0-177.1,79.7-177.1,177v745.7
						c0,97.4,79.7,177,177.1,177h587.7c97.4,0,177.1-79.7,177.1-177V516.8C942.5,419.5,862.8,339.8,765.4,339.8L765.4,339.8z"/>
				</g>
			</g>
			<g id="Inner_Frame">
				<g>
					<path fill-rule="evenodd" clip-rule="evenodd" fill="#C6C6CD" d="M175,1384.7c-32.9,0-63.9-12.9-87.3-36.3
						c-23.4-23.4-36.3-54.4-36.3-87.3V517.3c0-32.9,12.9-63.9,36.3-87.3c23.4-23.4,54.4-36.3,87.3-36.3h591.1
						c32.9,0,63.9,12.9,87.3,36.3c23.4,23.4,36.3,54.4,36.3,87.3v743.8c0,32.9-12.9,63.9-36.3,87.3c-23.4,23.4-54.4,36.3-87.3,36.3
						H175z"/>
				</g>
				<g>
					<path fill="#A6A6AA" d="M766.1,401.6c30.7,0,59.7,12.1,81.7,34c21.9,21.9,34,50.9,34,81.7v743.8c0,30.7-12.1,59.8-34,81.7
						c-21.9,21.9-50.9,34-81.7,34H175c-30.7,0-59.7-12.1-81.7-34c-21.9-21.9-34-50.9-34-81.7V517.3c0-30.7,12.1-59.8,34-81.7
						c21.9-21.9,50.9-34,81.7-34H766.1 M766.1,385.6H175c-72.4,0-131.6,59.2-131.6,131.7v743.8c0,72.4,59.2,131.7,131.6,131.7h591.1
						c72.4,0,131.6-59.2,131.6-131.7V517.3C897.7,444.9,838.5,385.6,766.1,385.6L766.1,385.6z"/>
				</g>
			</g>
			<g id="Inner_Frame_copy" display="none">
				<g display="inline">
					<path fill-rule="evenodd" clip-rule="evenodd" fill="#D7D7D7" d="M175,1384.7c-32.9,0-63.9-12.9-87.3-36.3
						c-23.4-23.4-36.3-54.4-36.3-87.3V517.3c0-32.9,12.9-63.9,36.3-87.3c23.4-23.4,54.4-36.3,87.3-36.3h591.1
						c32.9,0,63.9,12.9,87.3,36.3c23.4,23.4,36.3,54.4,36.3,87.3v743.8c0,32.9-12.9,63.9-36.3,87.3c-23.4,23.4-54.4,36.3-87.3,36.3
						H175z"/>
				</g>
				<g display="inline">
					<path fill="#A6A6AA" d="M766.1,401.6c30.7,0,59.7,12.1,81.7,34c21.9,21.9,34,50.9,34,81.7v743.8c0,30.7-12.1,59.8-34,81.7
						c-21.9,21.9-50.9,34-81.7,34H175c-30.7,0-59.7-12.1-81.7-34c-21.9-21.9-34-50.9-34-81.7V517.3c0-30.7,12.1-59.8,34-81.7
						c21.9-21.9,50.9-34,81.7-34H766.1 M766.1,385.6H175c-72.4,0-131.6,59.2-131.6,131.7v743.8c0,72.4,59.2,131.7,131.6,131.7h591.1
						c72.4,0,131.6-59.2,131.6-131.7V517.3C897.7,444.9,838.5,385.6,766.1,385.6L766.1,385.6z"/>
				</g>
			</g>
			<g id="Rounded_Rectangle_1">
				<g>
					<path fill-rule="evenodd" clip-rule="evenodd" fill="#C6C6CD" d="M950.7,758c-3.6,0-6.5-2.9-6.5-6.5V608.8
						c0-3.6,2.9-6.5,6.5-6.5s6.5,2.9,6.5,6.5v142.7C957.2,755.1,954.3,758,950.7,758z"/>
				</g>
				<g>
					<path fill="#A6A6AA" d="M950.7,605.7c1.7,0,3,1.4,3,3v142.7c0,1.7-1.4,3-3,3s-3-1.4-3-3V608.8
						C947.6,607.1,949,605.7,950.7,605.7 M950.7,598.7c-5.5,0-10,4.5-10,10v142.7c0,5.5,4.5,10,10,10c5.5,0,10-4.5,10-10V608.8
						C960.7,603.2,956.2,598.7,950.7,598.7L950.7,598.7z"/>
				</g>
			</g>
		</g>
	</g>
</g>
<g id="EDIT_THESE_1_">
	<g id="Watch_Band_EDIT_COLOR">
		<g>
			<path fill="#C6C6CD" d="M265.9,1771.7c-35,0-63.5-28.5-63.5-63.6v-0.3l-9.8-128.6c-2.6-34.5-10.1-68.5-22.2-100.9l-0.1-0.4
				l-17.2-34.8h639.9l-12.5,28.4c-16.6,37.7-26.6,77.6-29.9,118.6l-9.4,117.6v0.3c0,35-28.5,63.6-63.5,63.6H265.9z M150.3,337.2
				l12.5-28.4c16.6-37.7,26.6-77.6,29.9-118.6l9.4-117.6v-0.3c0-35,28.5-63.6,63.5-63.6h411.6c35,0,63.5,28.5,63.5,63.6v0.3
				l9.8,128.6c2.6,34.5,10.1,68.5,22.2,100.9l0.1,0.4l17.2,34.8H150.3z"/>
		</g>
		<g>
			<path fill="#A6A6AA" d="M677.3,16.7c30.6,0,55.5,24.9,55.5,55.6v0.6l0,0.6l9.8,128.3c2.7,35.3,10.3,70,22.7,103.1l0.3,0.8
				l0.4,0.7l11.3,22.8H162.6l7.5-17.2c16.9-38.5,27.2-79.3,30.6-121.2l9.4-117.3l0.1-0.6v-0.6c0-30.6,24.9-55.6,55.5-55.6H677.3
				 M780.5,1451.2l-7.5,17.2c-16.9,38.5-27.2,79.3-30.6,121.2l-9.4,117.3l-0.1,0.6v0.6c0,30.6-24.9,55.6-55.5,55.6H265.9
				c-30.6,0-55.5-24.9-55.5-55.6v-0.6l0-0.6l-9.8-128.3c-2.7-35.3-10.3-70-22.7-103.1l-0.3-0.8l-0.4-0.7l-11.3-22.8H780.5
				 M677.3,0.7H265.7c-39.5,0-71.5,32-71.5,71.6l-9.4,117.3c-3.2,40-13.1,79.3-29.3,116.1l-17.4,39.6h665l-22.8-45.9
				c-11.9-31.7-19.2-64.9-21.7-98.7l-9.8-128.3C748.8,32.8,716.8,0.7,677.3,0.7L677.3,0.7z M805.1,1435.2H140l22.8,45.9
				c11.9,31.7,19.2,64.9,21.7,98.7l9.8,128.3c0,39.5,32,71.6,71.5,71.6h411.6c39.5,0,71.5-32,71.5-71.6l9.4-117.3
				c3.2-40,13.1-79.3,29.3-116.1L805.1,1435.2L805.1,1435.2z"/>
		</g>
	</g>
</g>
</svg>
